<svg xmlns="http://www.w3.org/2000/svg" viewBox="0 0 32.35 32.35"><defs><style>.cls-1{fill:#e18a39;}.cls-2{fill:#febe17;}.cls-3{fill:#b66830;}.cls-4{fill:#f08a34;}.cls-5{fill:#af682e;opacity:0.3;}</style></defs><title>bell-icon</title><g id="Camada_2" data-name="Camada 2"><g id="Camada_1-2" data-name="Camada 1"><path class="cls-1" d="M31.53.82a2.78,2.78,0,1,0,0,3.94A2.78,2.78,0,0,0,31.53.82Zm-3,3a1.52,1.52,0,1,1,2.15,0A1.52,1.52,0,0,1,28.49,3.86Z"/><path class="cls-2" d="M26.24,20.27C35,11.55,28,4.3,28,4.3s-7.25-6.92-16,1.8A26.1,26.1,0,0,1,.14,12.71l9.74,9.74,9.74,9.74A26.1,26.1,0,0,1,26.24,20.27Z"/><ellipse class="cls-3" cx="9.89" cy="22.46" rx="2.35" ry="13.78" transform="translate(-12.99 13.57) rotate(-45)"/><path class="cls-4" d="M9.49,18.76a6.15,6.15,0,0,0-.92.66,3.09,3.09,0,0,0,4.36,4.36,6.18,6.18,0,0,0,.77-.81c-.66-.7-1.36-1.42-2.08-2.14S10.19,19.42,9.49,18.76Z"/><path class="cls-5" d="M19.77,31.65a26.26,26.26,0,0,1,6.47-11.38c6.61-6.61,4.24-12.37,2.7-14.77A2.78,2.78,0,0,0,31.53.82l-.9.9a1.52,1.52,0,0,1-2.15,2.15L8.22,24.12c5.38,5.38,10.49,9,11.41,8.08A.66.66,0,0,0,19.77,31.65Z"/></g></g></svg>