<svg xmlns="http://www.w3.org/2000/svg" viewBox="0 0 611.32 223.71"><defs><style>.cls-1{fill:#063;}.cls-2{fill:#fff;}</style></defs><title>logo-bottom</title><g id="Camada_2" data-name="Camada 2"><g id="Layer_1" data-name="Layer 1"><rect class="cls-1" y="2.71" width="611.32" height="221"/><path class="cls-2" d="M291.05,114.7q0,8.24-6.4,14.87Q277.5,137,266.33,137q-12.13,0-19.61-8.62a27.22,27.22,0,0,1-6.78-18.33,26,26,0,0,1,6.78-17.76q7.58-8.53,19.8-8.53a24.6,24.6,0,0,1,12.22,3.46,65.06,65.06,0,0,1,9.33,6.91L294,87.41q-12.13-12.13-27.39-12.13a37.56,37.56,0,0,0-23.46,8.05Q230.34,93,230.33,110q0,15.29,10.62,25.58,10.33,10,25.35,10a34.64,34.64,0,0,0,23.51-8.81c7.17-6.28,10.75-12.57,10.75-22.13"/><path class="cls-2" d="M395.43,114.7q0,8.24-6.4,14.87Q381.89,137,370.71,137q-12.13,0-19.61-8.62a27.22,27.22,0,0,1-6.78-18.33,26,26,0,0,1,6.78-17.76q7.58-8.53,19.8-8.53a24.6,24.6,0,0,1,12.22,3.46,65.06,65.06,0,0,1,9.33,6.91l5.92-6.77Q386.24,75.28,371,75.29a37.56,37.56,0,0,0-23.46,8.05Q334.72,93,334.71,110q0,15.29,10.62,25.58,10.33,10,25.35,10a34.64,34.64,0,0,0,23.51-8.81c7.17-6.28,10.75-12.57,10.75-22.13"/><path class="cls-2" d="M175.75,111.86l33.5-18.52A18.77,18.77,0,0,0,193.6,87a19.54,19.54,0,0,0-16.14,7.59Q172,101.48,172,111.45a21.93,21.93,0,0,0,5.74,15.11q6.28,7,16.41,7t15.52-5.61q4.78-4.87,6.83-15.52l12.38,1.71q0,10.87-8.82,20.23-10.53,11.22-26.8,11.22a33.35,33.35,0,0,1-23.93-9.92,31.93,31.93,0,0,1-10.25-23.8q0-17.51,11.56-27.75a33.48,33.48,0,0,1,23-8.82q11.4,0,19.41,5.2,7.85,5.33,13.47,16.13l-45.4,25.16Z"/><path class="cls-2" d="M323.5,28.8a.81.81,0,0,0-1.12.27L320,32.84l1.39.86,2.33-3.77A.81.81,0,0,0,323.5,28.8Z"/><circle class="cls-2" cx="323.08" cy="29.48" r="0.36" transform="matrix(0.52, -0.85, 0.85, 0.52, 128.67, 289.2)"/><path class="cls-2" d="M333.37,34.89a.82.82,0,0,1,.27,1.12l-2.33,3.77-1.39-.86,2.33-3.77A.81.81,0,0,1,333.37,34.89Z"/><circle class="cls-2" cx="332.95" cy="35.58" r="0.36" transform="translate(128.52 300.77) rotate(-58.47)"/><path class="cls-2" d="M323.29,40.17l-9.05-5.59-3.33,7.86a1.44,1.44,0,0,0,.6,1.71l6.75,4.17L325,52.5a1.43,1.43,0,0,0,.94.2,1.41,1.41,0,0,0,.86-.43l5.53-6.5Z"/><path class="cls-2" d="M335.29,43.08l-10-6.17-10-6.17a1.39,1.39,0,1,0-1.46,2.36l10,6.17,10,6.16a1.39,1.39,0,1,0,1.46-2.36Z"/><path class="cls-2" d="M327.32,48.13l-6.47-4-6.47-4a.39.39,0,0,0-.54.13.4.4,0,0,0,.13.54l6.47,4,6.48,4a.4.4,0,0,0,.55-.13A.4.4,0,0,0,327.32,48.13Z"/><path class="cls-2" d="M325.9,50.43l-6.47-4-6.47-4a.4.4,0,0,0-.42.67l6.47,4,6.47,4A.4.4,0,0,0,326,51,.39.39,0,0,0,325.9,50.43Z"/><path class="cls-2" d="M329.3,45.88l-6.9-4.26-6.9-4.26a.4.4,0,1,0-.42.67l6.9,4.26,6.9,4.26a.4.4,0,0,0,.55-.13A.4.4,0,0,0,329.3,45.88Z"/><path class="cls-2" d="M318,56.07a1.45,1.45,0,0,0,.94.2,1.5,1.5,0,0,0,.85-.42l3.37-3.46-5.37-3.32-5.39-3.33-1.58,4.57a1.39,1.39,0,0,0,0,1,1.44,1.44,0,0,0,.6.74Z"/><circle class="cls-2" cx="320.85" cy="44.13" r="3.26" transform="translate(114.71 293.92) rotate(-58.3)"/><path class="cls-2" d="M334.2,22.52A25.4,25.4,0,0,0,299.7,58.19l.14.21a1.44,1.44,0,0,0,2.29-1.75h0a22.51,22.51,0,1,1,14.73,9.65c-2.71-.49-8.16-3.14-1.4-11L313.37,54c-8.57,10.18,0,14.63,3.11,15.17A25.4,25.4,0,0,0,334.2,22.52Z"/><path class="cls-2" d="M290.2,40.41s3.78-2.29,6.38.18c0,0,1.33-2,2.06-1.77,0,0-7.17.67-8-.39Z"/><path class="cls-2" d="M240.21,33.68l.2.09c5.4,4.82,15.69,8.82,21.6,9.64,15.3,2.1,25.63-2.44,29.34-4.47a.86.86,0,0,1,.06.13C264.76,77.4,240.21,33.68,240.21,33.68Z"/><path class="cls-2" d="M262,43.41c-5.9-.81-16.19-4.82-21.6-9.64,1.56.65,9,7.38,27.69-1.68,15.46-7.47,22.57,5.49,23.24,6.85C287.64,41,277.3,45.51,262,43.41Z"/><path class="cls-2" d="M260.87,51.38a23.24,23.24,0,0,0,8.3-1.33A36.49,36.49,0,0,0,281.23,43a27.61,27.61,0,0,1-8.74,6.3,30.89,30.89,0,0,1-8,1.85A22.73,22.73,0,0,1,260.87,51.38Z"/><path class="cls-2" d="M276.8,33.94a12.44,12.44,0,0,1,4.92,1.37,16.2,16.2,0,0,1,5.75,5.36,11,11,0,0,0-3.82-5.25C281,33.44,276.9,33.87,276.8,33.94Z"/><path class="cls-2" d="M267.58,44.48a43.09,43.09,0,0,1-5.12-2.14c-2.72-1.35-5.65-3.49-6.66-5.57a5.86,5.86,0,0,0,1.15,1.81,9.41,9.41,0,0,0,2.91,2.49A49.91,49.91,0,0,0,267.58,44.48Z"/><path class="cls-2" d="M251.15,47.89a22.6,22.6,0,0,0,7.46,1.2c2.16,0,5.24-.06,7.4-.88s3.44-2.39,4.64-3.55A14.92,14.92,0,0,1,268,46.44a20.65,20.65,0,0,1-6.71,2.24A24.11,24.11,0,0,1,251.15,47.89Z"/><path class="cls-2" d="M275.37,42.4a3.14,3.14,0,0,0,.28-3.33c-.89-1.66-6.89-4.22-8.26-4.89,0,0,5.27,2.27,6.63,4a6.54,6.54,0,0,1,1.3,2.71A4.75,4.75,0,0,1,275.37,42.4Z"/><path class="cls-2" d="M240.24,33.72a51.75,51.75,0,0,0,4.42,3.4,45,45,0,0,0,12.51,6,42.68,42.68,0,0,0,18,1.35A40.42,40.42,0,0,0,290.89,39a39.27,39.27,0,0,1-8,3.3A46.54,46.54,0,0,1,264.17,44a45.37,45.37,0,0,1-17-5.68A64.84,64.84,0,0,1,240.24,33.72Z"/><path class="cls-2" d="M295.87,34.56s.17,3.07,2.56,4.37c0,0-2,1.61-1.73,2.1,0,0-1.18-5.34-2.17-5.72Z"/><path class="cls-2" d="M279.34,0l.12.12c4.74,2.78,10,9.28,12,13.36,5.09,10.57,4.23,19.1,3.62,22.25h.09C316.68,7.53,279.34,0,279.34,0Z"/><path class="cls-2" d="M291.46,13.48c-2-4.08-7.26-10.58-12-13.36.84,1,7.42,4.76,5.25,20.41-1.8,12.92,9.24,15,10.38,15.21C295.69,32.58,296.56,24.05,291.46,13.48Z"/><path class="cls-2" d="M297,10.8a17.63,17.63,0,0,1,1,6.32,27.77,27.77,0,0,1-2.3,10.37,21.09,21.09,0,0,0,2.51-7.79,23.47,23.47,0,0,0-.52-6.22A17.14,17.14,0,0,0,297,10.8Z"/><path class="cls-2" d="M288.07,26.39a9.81,9.81,0,0,0,2.15,3.23,12.3,12.3,0,0,0,5.21,2.9A8.28,8.28,0,0,1,290.73,31,7.93,7.93,0,0,1,288.07,26.39Z"/><path class="cls-2" d="M293.53,17.26a32.74,32.74,0,0,0-2.75-3.2c-1.6-1.65-3.84-3.27-5.58-3.51a4.58,4.58,0,0,1,1.57.41,7.25,7.25,0,0,1,2.48,1.53A38.29,38.29,0,0,1,293.53,17.26Z"/><path class="cls-2" d="M292.17,4.59a17.12,17.12,0,0,1,2.62,5.11,17.74,17.74,0,0,1,1.09,5.56,10.11,10.11,0,0,1-1.49,4.18,11.2,11.2,0,0,0,.66-2.34,15.84,15.84,0,0,0,0-5.38A18.14,18.14,0,0,0,292.17,4.59Z"/><path class="cls-2" d="M293.85,23.38a2.4,2.4,0,0,1-2.34,1c-1.41-.26-4.66-4-5.47-4.82,0,0,2.87,3.27,4.47,3.84a4.85,4.85,0,0,0,2.27.31A3.82,3.82,0,0,0,293.85,23.38Z"/><path class="cls-2" d="M279.37,0a39.22,39.22,0,0,1,3.5,2.41,34.34,34.34,0,0,1,7.28,7.64,32.42,32.42,0,0,1,5.17,12.69A30.71,30.71,0,0,1,295,35.38a29.76,29.76,0,0,0,.51-6.58,35.41,35.41,0,0,0-3.13-13.9,34.29,34.29,0,0,0-8.08-11A49.6,49.6,0,0,0,279.37,0Z"/><rect class="cls-2" x="310.93" y="75.29" width="12.08" height="68.62"/><rect class="cls-2" x="410.93" y="75.29" width="12.08" height="68.62"/><rect class="cls-2" x="431.66" y="123.17" width="12.08" height="29.39" transform="translate(575.57 -299.84) rotate(90)"/><path class="cls-2" d="M503.93,137.27a42.44,42.44,0,0,1-12.19,7.6,35.26,35.26,0,0,1-12.57,2.22q-11.08,0-17-5.41a17.86,17.86,0,0,1-6-13.84,18.38,18.38,0,0,1,2.25-9,18.57,18.57,0,0,1,5.89-6.55,27.71,27.71,0,0,1,8.2-3.74,81.79,81.79,0,0,1,10.13-1.71q13.8-1.64,20.33-3.93.06-2.34.06-3,0-7-3.23-9.82-4.37-3.86-13-3.86-8,0-11.87,2.82t-5.67,10L458.15,97.5a27.62,27.62,0,0,1,5-11.56,21.92,21.92,0,0,1,10.07-6.77,44.86,44.86,0,0,1,15.26-2.38q8.61,0,14,2a18.46,18.46,0,0,1,7.92,5.1,18,18,0,0,1,3.55,7.76,64.19,64.19,0,0,1,.57,10.51v15.2q0,15.89.73,20.1a25.31,25.31,0,0,0,2.88,8.07h-11.9A24.11,24.11,0,0,1,503.93,137.27ZM503,111.81q-6.21,2.53-18.62,4.31a43.16,43.16,0,0,0-9.94,2.28,9.91,9.91,0,0,0-4.5,3.71,10.07,10.07,0,0,0,1.87,13q3.45,3,10.1,3a23.5,23.5,0,0,0,11.71-2.88,17.74,17.74,0,0,0,7.54-7.88Q503,123.53,503,116Z"/><path class="cls-2" d="M215.65,193.09h-5.52V166.83l-8.31,26.26H199l-8.35-26.26v26.26h-4.42v-30h8.46L201,182.41l6.17-19.31h8.5Z"/><path class="cls-2" d="M245.79,193.09H240l-2.4-7.14H226.08l-2.35,7.14h-4.61l10-30h6.66Zm-9.62-11.47-4.37-13.38-4.37,13.38Z"/><path class="cls-2" d="M254.8,193.09H249.4v-30h5.41Z"/><path class="cls-2" d="M258.25,185.86l5.25-1.12q.94,4.46,7.25,4.46a7.37,7.37,0,0,0,4.43-1.14,3.41,3.41,0,0,0,1.55-2.83A4,4,0,0,0,276,183a5.06,5.06,0,0,0-3-1.64l-5.73-1.49a14.12,14.12,0,0,1-4.35-1.75,6.84,6.84,0,0,1-2.25-2.76,8.74,8.74,0,0,1-.85-3.8,7.89,7.89,0,0,1,3-6.45,11.74,11.74,0,0,1,7.65-2.43,14,14,0,0,1,6.91,1.69,7.62,7.62,0,0,1,3.88,4.79l-5.14,1.28q-1.19-3.41-5.54-3.41a6.09,6.09,0,0,0-3.86,1.05,3.28,3.28,0,0,0-1.33,2.68q0,2.57,4.17,3.6l5.1,1.27q4.64,1.16,6.22,3.44a8.6,8.6,0,0,1,1.58,5,8.27,8.27,0,0,1-3.33,7,13.84,13.84,0,0,1-8.62,2.54,15.78,15.78,0,0,1-7.81-1.87A9.16,9.16,0,0,1,258.25,185.86Z"/><path class="cls-2" d="M298.35,193.09v-30H310a16.67,16.67,0,0,1,4.92.62,6.67,6.67,0,0,1,3.38,2.57,7.57,7.57,0,0,1,1.43,4.59,6.76,6.76,0,0,1-1.45,4.32,6.52,6.52,0,0,1-4,2.34,7.53,7.53,0,0,1,4.79,2.57,7.41,7.41,0,0,1,1.63,4.79,8.09,8.09,0,0,1-2.27,5.83q-2.27,2.36-7,2.36Zm5.12-17.4h6.59a4.1,4.1,0,0,0,4.37-4.29,3.52,3.52,0,0,0-1.34-3,5.19,5.19,0,0,0-3.14-1h-6.48Zm0,12.9h7a5,5,0,0,0,3.5-1.17,4.4,4.4,0,0,0,0-6.24,4.9,4.9,0,0,0-3.46-1.21h-7Z"/><path class="cls-2" d="M349.06,193.09h-5.71l-4.66-12.33h-7.6v12.33h-5.41v-30h13q5.43,0,8,2.45a8.4,8.4,0,0,1,2.55,6.34,7.93,7.93,0,0,1-5.4,8Zm-18-16.66h6.72a6.53,6.53,0,0,0,4.35-1.23,4.23,4.23,0,0,0,1.43-3.38,4,4,0,0,0-1.41-3.2,5.81,5.81,0,0,0-3.93-1.22h-7.16Z"/><path class="cls-2" d="M378.13,193.09h-5.78L370,186H358.42l-2.35,7.14h-4.61l10-30h6.66Zm-9.62-11.47-4.37-13.38-4.37,13.38Z"/><path class="cls-2" d="M378.6,185.86l5.25-1.12q.94,4.46,7.25,4.46a7.37,7.37,0,0,0,4.43-1.14,3.41,3.41,0,0,0,1.55-2.83,4,4,0,0,0-.7-2.27,5.06,5.06,0,0,0-3-1.64l-5.74-1.49a14.12,14.12,0,0,1-4.35-1.75,6.84,6.84,0,0,1-2.25-2.76,8.74,8.74,0,0,1-.85-3.8,7.89,7.89,0,0,1,3-6.45,11.73,11.73,0,0,1,7.65-2.43,14,14,0,0,1,6.91,1.69,7.62,7.62,0,0,1,3.88,4.79l-5.14,1.28q-1.19-3.41-5.54-3.41a6.09,6.09,0,0,0-3.86,1.05,3.28,3.28,0,0,0-1.33,2.68q0,2.57,4.17,3.6l5.1,1.27q4.64,1.16,6.22,3.44a8.6,8.6,0,0,1,1.58,5,8.27,8.27,0,0,1-3.33,7,13.84,13.84,0,0,1-8.62,2.54,15.78,15.78,0,0,1-7.81-1.87A9.16,9.16,0,0,1,378.6,185.86Z"/><path class="cls-2" d="M412.85,193.09h-5.41v-30h5.41Z"/><path class="cls-2" d="M437.9,193.09H419.44v-30h5.69v25.09H437.9Z"/><path class="cls-2" d="M113,124.35q0,4.1,0,7.38t.1,5.95a2.57,2.57,0,0,0,1.78,2.67l7.59,2.26.21,2.94q-8.14-.21-16.27-.21t-17,.21l-.27-2.94,8.41-2.53A2.27,2.27,0,0,0,99.48,138q.07-2.73.1-6.12t0-7.49V68.9q0-3.49,0-6.29t-.1-5.06a2.33,2.33,0,0,0-1.64-2.32l-8.48-2.67-.14-2.94q8.82.27,17.23.27,1.66,0,4.21-.1l6.22-.24,6.22-.21q2.49-.07,3.94-.07,15.75,0,23.63,5.88t7.88,17.16q0,10.19-5.41,16.51t-16.5,9.74q4.37,6.56,8,12.68t6.83,11.21q3.15,5.1,5.78,9a41.92,41.92,0,0,0,4.88,6.15,20.22,20.22,0,0,0,2.32,2,12.32,12.32,0,0,0,2.43,1.4,22.86,22.86,0,0,0,2.67,1q1.4.41,3.11.82l.21,3a68.65,68.65,0,0,1-8.27.62q-2.8,0-4.93-.14a21.78,21.78,0,0,1-3.79-.55,15.54,15.54,0,0,1-3-1.06,14.67,14.67,0,0,1-2.67-1.68,25.5,25.5,0,0,1-5.58-6.12q-2.74-4-5.68-9.06t-6.13-10.77q-3.19-5.71-6.72-11.18-1-1.64-1.77-2.6a6.17,6.17,0,0,0-1.59-1.5,5.58,5.58,0,0,0-2-.75,22.13,22.13,0,0,0-2.95-.27l-4.78-.14Zm0-28.85q4.17.21,7.73.21,11.83,0,17.33-5t5.5-15.76q0-10.39-5.26-15.18T121.83,55q-1.91,0-4.1.14T113,55.5Z"/></g></g></svg>