<svg xmlns="http://www.w3.org/2000/svg" viewBox="0 0 284.73 128.49"><defs><style>.cls-1{fill:#fff;}</style></defs><title>logo-branco</title><g id="Camada_2" data-name="Camada 2"><g id="Camada_1-2" data-name="Camada 1"><path class="cls-1" d="M134,76.14A13.9,13.9,0,0,1,129.74,86a16.09,16.09,0,0,1-12.17,5,16.4,16.4,0,0,1-13-5.72,18.07,18.07,0,0,1-4.5-12.17,17.28,17.28,0,0,1,4.5-11.79,16.75,16.75,0,0,1,13.14-5.66,16.33,16.33,0,0,1,8.11,2.3A43.19,43.19,0,0,1,132,62.53l3.93-4.5Q127.88,50,117.75,50a24.93,24.93,0,0,0-15.57,5.35q-8.49,6.42-8.5,17.7a22.67,22.67,0,0,0,7,17,23.29,23.29,0,0,0,16.83,6.63,23,23,0,0,0,15.61-5.85c4.76-4.17,7.14-8.34,7.14-14.69"/><path class="cls-1" d="M203.29,76.14A13.9,13.9,0,0,1,199,86a16.09,16.09,0,0,1-12.17,5,16.4,16.4,0,0,1-13-5.72,18.07,18.07,0,0,1-4.5-12.17,17.28,17.28,0,0,1,4.5-11.79A16.75,16.75,0,0,1,187,55.64a16.33,16.33,0,0,1,8.11,2.3,43.19,43.19,0,0,1,6.19,4.59l3.93-4.5Q197.18,50,187,50a24.93,24.93,0,0,0-15.57,5.35Q163,61.74,163,73a22.67,22.67,0,0,0,7,17,23.29,23.29,0,0,0,16.83,6.63,23,23,0,0,0,15.61-5.85c4.76-4.17,7.14-8.34,7.14-14.69"/><path class="cls-1" d="M57.45,74.26,79.69,62a14.69,14.69,0,0,0-3.19-2.59,14.73,14.73,0,0,0-7.21-1.59,13,13,0,0,0-10.71,5A17.34,17.34,0,0,0,55,74a14.56,14.56,0,0,0,3.81,10,14,14,0,0,0,10.9,4.63q6.76,0,10.3-3.72,3.18-3.23,4.54-10.3l8.22,1.13q0,7.22-5.86,13.43a23.34,23.34,0,0,1-17.79,7.45,22.14,22.14,0,0,1-15.89-6.58,21.19,21.19,0,0,1-6.81-15.8q0-11.62,7.67-18.42A22.23,22.23,0,0,1,69.3,50a23.18,23.18,0,0,1,12.89,3.45,28.33,28.33,0,0,1,8.94,10.71L61,80.84Z"/><path class="cls-1" d="M155.53,19.12a.54.54,0,0,0-.74.18l-1.55,2.51.92.57,1.55-2.5A.54.54,0,0,0,155.53,19.12Z"/><circle class="cls-1" cx="155.25" cy="19.57" r="0.24" transform="translate(57.23 141.54) rotate(-58.4)"/><path class="cls-1" d="M162.08,23.16a.54.54,0,0,1,.18.75l-1.55,2.5-.92-.57,1.55-2.5A.54.54,0,0,1,162.08,23.16Z"/><circle class="cls-1" cx="161.8" cy="23.62" r="0.24" transform="translate(57.06 149.19) rotate(-58.47)"/><path class="cls-1" d="M155.39,26.67l-6-3.71-2.21,5.22a1,1,0,0,0,.4,1.14L152,32.08l4.48,2.77a1,1,0,0,0,.63.13.94.94,0,0,0,.57-.29l3.67-4.32Z"/><path class="cls-1" d="M163.36,28.6l-6.63-4.09-6.63-4.1a.92.92,0,1,0-1,1.57l6.63,4.1,6.63,4.09a.92.92,0,1,0,1-1.57Z"/><path class="cls-1" d="M158.07,31.95l-4.3-2.65-4.3-2.65a.26.26,0,0,0-.36.08.26.26,0,0,0,.08.36l4.3,2.65,4.3,2.65a.27.27,0,0,0,.36-.09A.26.26,0,0,0,158.07,31.95Z"/><path class="cls-1" d="M157.13,33.48l-4.3-2.65-4.3-2.66a.26.26,0,0,0-.28.45l4.3,2.65,4.29,2.65a.27.27,0,0,0,.36-.09A.26.26,0,0,0,157.13,33.48Z"/><path class="cls-1" d="M159.38,30.46l-4.58-2.83-4.58-2.83a.26.26,0,1,0-.28.45l4.58,2.83,4.58,2.83a.26.26,0,0,0,.36-.09A.27.27,0,0,0,159.38,30.46Z"/><path class="cls-1" d="M151.9,37.22a1,1,0,0,0,.62.13,1,1,0,0,0,.57-.28l2.23-2.3-3.57-2.21-3.58-2.21-1.05,3a.93.93,0,0,0,0,.63,1,1,0,0,0,.4.49Z"/><circle class="cls-1" cx="153.77" cy="29.29" r="2.16" transform="translate(48.04 144.73) rotate(-58.3)"/><path class="cls-1" d="M162.63,14.95a16.86,16.86,0,0,0-22.9,23.68l.09.14a1,1,0,0,0,1.52-1.16h0A14.94,14.94,0,1,1,151.12,44c-1.8-.32-5.41-2.09-.93-7.32l-1.39-.86c-5.69,6.75,0,9.71,2.06,10.07a16.86,16.86,0,0,0,11.76-31Z"/><path class="cls-1" d="M133.42,26.83s2.51-1.52,4.23.12c0,0,.88-1.3,1.37-1.17,0,0-4.76.45-5.33-.26Z"/><path class="cls-1" d="M100.24,22.36l.13.06c3.59,3.2,10.42,5.86,14.34,6.4,10.15,1.4,17-1.62,19.48-3l0,.08C116.53,51.39,100.24,22.36,100.24,22.36Z"/><path class="cls-1" d="M114.71,28.82c-3.92-.54-10.75-3.2-14.34-6.4,1,.43,6,4.9,18.39-1.12,10.26-5,15,3.65,15.43,4.55C131.73,27.2,124.86,30.22,114.71,28.82Z"/><path class="cls-1" d="M114,34.11a15.43,15.43,0,0,0,5.51-.88,24.22,24.22,0,0,0,8-4.7,18.33,18.33,0,0,1-5.8,4.18,20.51,20.51,0,0,1-5.32,1.23A15.09,15.09,0,0,1,114,34.11Z"/><path class="cls-1" d="M124.53,22.53a8.26,8.26,0,0,1,3.26.91A10.75,10.75,0,0,1,131.61,27a7.32,7.32,0,0,0-2.54-3.49A6.92,6.92,0,0,0,124.53,22.53Z"/><path class="cls-1" d="M118.4,29.53A28.61,28.61,0,0,1,115,28.1c-1.81-.9-3.75-2.32-4.42-3.69a3.89,3.89,0,0,0,.76,1.2,6.25,6.25,0,0,0,1.93,1.65A33.13,33.13,0,0,0,118.4,29.53Z"/><path class="cls-1" d="M107.5,31.79a15,15,0,0,0,5,.8,15.49,15.49,0,0,0,4.92-.58,8.83,8.83,0,0,0,3.08-2.36,9.9,9.9,0,0,1-1.77,1.18,13.71,13.71,0,0,1-4.46,1.48A16,16,0,0,1,107.5,31.79Z"/><path class="cls-1" d="M123.58,28.14a2.08,2.08,0,0,0,.19-2.21c-.59-1.1-4.57-2.8-5.48-3.25,0,0,3.5,1.51,4.4,2.68a4.34,4.34,0,0,1,.87,1.8A3.15,3.15,0,0,1,123.58,28.14Z"/><path class="cls-1" d="M100.26,22.38a34.35,34.35,0,0,0,2.94,2.26,29.89,29.89,0,0,0,8.31,4,28.34,28.34,0,0,0,12,.89,26.83,26.83,0,0,0,10.43-3.64,26.07,26.07,0,0,1-5.34,2.19,30.9,30.9,0,0,1-12.4,1.13,30.12,30.12,0,0,1-11.3-3.77A43,43,0,0,1,100.26,22.38Z"/><path class="cls-1" d="M137.19,22.94a3.77,3.77,0,0,0,1.7,2.9s-1.36,1.07-1.15,1.4c0,0-.78-3.54-1.44-3.8Z"/><path class="cls-1" d="M126.22,0l.08.08a24.66,24.66,0,0,1,8,8.87c3.38,7,2.81,12.68,2.41,14.77h.06C151,5,126.22,0,126.22,0Z"/><path class="cls-1" d="M134.26,9a24.66,24.66,0,0,0-8-8.87c.56.64,4.93,3.16,3.48,13.55-1.19,8.58,6.13,10,6.89,10.1C137.07,21.63,137.64,16,134.26,9Z"/><path class="cls-1" d="M137.91,7.17a11.71,11.71,0,0,1,.65,4.19A18.43,18.43,0,0,1,137,18.25a14,14,0,0,0,1.67-5.17,15.58,15.58,0,0,0-.35-4.13A11.38,11.38,0,0,0,137.91,7.17Z"/><path class="cls-1" d="M132,17.52a6.51,6.51,0,0,0,1.42,2.15,8.16,8.16,0,0,0,3.46,1.92,5.5,5.5,0,0,1-3.11-1A5.27,5.27,0,0,1,132,17.52Z"/><path class="cls-1" d="M135.64,11.46a21.73,21.73,0,0,0-1.82-2.13A7.71,7.71,0,0,0,130.11,7a3,3,0,0,1,1,.27,4.81,4.81,0,0,1,1.64,1A25.42,25.42,0,0,1,135.64,11.46Z"/><path class="cls-1" d="M134.73,3a11.36,11.36,0,0,1,1.74,3.39,11.78,11.78,0,0,1,.72,3.69,6.71,6.71,0,0,1-1,2.78,7.44,7.44,0,0,0,.44-1.55,10.52,10.52,0,0,0,0-3.57A12,12,0,0,0,134.73,3Z"/><path class="cls-1" d="M135.85,15.52a1.59,1.59,0,0,1-1.55.65c-.94-.17-3.1-2.65-3.63-3.2,0,0,1.91,2.17,3,2.55a3.22,3.22,0,0,0,1.51.21A2.53,2.53,0,0,0,135.85,15.52Z"/><path class="cls-1" d="M126.23,0a26,26,0,0,1,2.33,1.6,22.8,22.8,0,0,1,4.84,5.07,21.52,21.52,0,0,1,3.43,8.43,20.39,20.39,0,0,1-.19,8.39,19.76,19.76,0,0,0,.34-4.37,23.5,23.5,0,0,0-2.08-9.23,22.76,22.76,0,0,0-5.36-7.29A32.92,32.92,0,0,0,126.23,0Z"/><rect class="cls-1" x="147.19" y="49.98" width="8.02" height="45.56"/><rect class="cls-1" x="213.57" y="49.98" width="8.02" height="45.56"/><rect class="cls-1" x="227.34" y="81.77" width="8.02" height="19.51" transform="translate(322.87 -139.82) rotate(90)"/><path class="cls-1" d="M275.31,91.13a28.17,28.17,0,0,1-8.09,5,23.4,23.4,0,0,1-8.34,1.47q-7.36,0-11.31-3.59a11.86,11.86,0,0,1-4-9.18,12.2,12.2,0,0,1,1.49-6A12.33,12.33,0,0,1,249,74.52,18.4,18.4,0,0,1,254.46,72a54.29,54.29,0,0,1,6.73-1.14,69.13,69.13,0,0,0,13.49-2.61q0-1.55,0-2,0-4.62-2.14-6.52-2.9-2.56-8.62-2.56-5.34,0-7.88,1.87t-3.76,6.62l-7.4-1a18.34,18.34,0,0,1,3.32-7.67,14.55,14.55,0,0,1,6.68-4.5A29.78,29.78,0,0,1,265.05,51a26.84,26.84,0,0,1,9.29,1.35,12.26,12.26,0,0,1,5.25,3.38A11.93,11.93,0,0,1,282,60.86a42.61,42.61,0,0,1,.38,7V77.93q0,10.55.48,13.35a16.8,16.8,0,0,0,1.91,5.36h-7.9A16,16,0,0,1,275.31,91.13Zm-.63-16.9a55.47,55.47,0,0,1-12.36,2.86,28.66,28.66,0,0,0-6.6,1.51,6.58,6.58,0,0,0-3,2.46A6.69,6.69,0,0,0,254,89.7q2.29,2,6.71,2a15.6,15.6,0,0,0,7.78-1.91,11.78,11.78,0,0,0,5-5.23A18.29,18.29,0,0,0,274.68,77Z"/><path class="cls-1" d="M83.93,128.19H80.27V110.75l-5.51,17.43H72.87l-5.54-17.43v17.43H64.4V108.28H70l4.17,12.82,4.1-12.82h5.65Z"/><path class="cls-1" d="M103.94,128.19h-3.84l-1.59-4.74H90.86l-1.56,4.74H86.24l6.61-19.91h4.42Zm-6.39-7.61-2.9-8.88-2.9,8.88Z"/><path class="cls-1" d="M109.92,128.19h-3.59V108.28h3.59Z"/><path class="cls-1" d="M112.21,123.39l3.49-.74q.63,3,4.81,3a4.89,4.89,0,0,0,2.94-.76,2.27,2.27,0,0,0,1-1.88,2.65,2.65,0,0,0-.47-1.51,3.36,3.36,0,0,0-2-1.09l-3.81-1a9.37,9.37,0,0,1-2.89-1.16,4.54,4.54,0,0,1-1.49-1.83,5.8,5.8,0,0,1-.56-2.52,5.24,5.24,0,0,1,2-4.28,7.79,7.79,0,0,1,5.08-1.61,9.28,9.28,0,0,1,4.59,1.12,5.06,5.06,0,0,1,2.57,3.18l-3.41.85q-.79-2.26-3.68-2.26a4,4,0,0,0-2.56.7,2.18,2.18,0,0,0-.88,1.78q0,1.71,2.77,2.39l3.38.85q3.08.77,4.13,2.28a5.71,5.71,0,0,1,1.05,3.33,5.49,5.49,0,0,1-2.21,4.62,9.19,9.19,0,0,1-5.73,1.68,10.48,10.48,0,0,1-5.19-1.24A6.08,6.08,0,0,1,112.21,123.39Z"/><path class="cls-1" d="M138.84,128.19V108.28h7.76a11.06,11.06,0,0,1,3.27.41,4.43,4.43,0,0,1,2.25,1.71,5,5,0,0,1,.95,3,4.49,4.49,0,0,1-1,2.87,4.33,4.33,0,0,1-2.65,1.55,5,5,0,0,1,3.18,1.71,4.92,4.92,0,0,1,1.08,3.18,5.37,5.37,0,0,1-1.51,3.87,6.18,6.18,0,0,1-4.65,1.57Zm3.4-11.55h4.38a2.72,2.72,0,0,0,2.9-2.84,2.33,2.33,0,0,0-.89-2,3.45,3.45,0,0,0-2.09-.65h-4.3Zm0,8.56h4.64a3.33,3.33,0,0,0,2.33-.77,2.92,2.92,0,0,0,0-4.14,3.25,3.25,0,0,0-2.3-.8h-4.65Z"/><path class="cls-1" d="M172.5,128.19h-3.79L165.62,120h-5v8.18H157V108.28h8.64q3.6,0,5.29,1.63a5.58,5.58,0,0,1,1.69,4.21,5.26,5.26,0,0,1-3.59,5.28Zm-11.93-11.06H165a4.34,4.34,0,0,0,2.89-.82,2.81,2.81,0,0,0,.95-2.25,2.67,2.67,0,0,0-.93-2.12,3.86,3.86,0,0,0-2.61-.81h-4.76Z"/><path class="cls-1" d="M191.8,128.19H188l-1.59-4.74h-7.66l-1.56,4.74h-3.06l6.61-19.91h4.42Zm-6.39-7.61-2.9-8.88-2.9,8.88Z"/><path class="cls-1" d="M192.11,123.39l3.49-.74q.63,3,4.81,3a4.89,4.89,0,0,0,2.94-.76,2.27,2.27,0,0,0,1-1.88,2.65,2.65,0,0,0-.47-1.51,3.36,3.36,0,0,0-2-1.09l-3.81-1a9.37,9.37,0,0,1-2.89-1.16,4.54,4.54,0,0,1-1.49-1.83,5.8,5.8,0,0,1-.56-2.52,5.24,5.24,0,0,1,2-4.28,7.79,7.79,0,0,1,5.08-1.61,9.28,9.28,0,0,1,4.59,1.12,5.06,5.06,0,0,1,2.57,3.18l-3.41.85q-.79-2.26-3.68-2.26a4,4,0,0,0-2.56.7,2.18,2.18,0,0,0-.88,1.78q0,1.71,2.77,2.39l3.38.85q3.08.77,4.13,2.28a5.71,5.71,0,0,1,1.05,3.33,5.49,5.49,0,0,1-2.21,4.62,9.19,9.19,0,0,1-5.73,1.68,10.47,10.47,0,0,1-5.19-1.24A6.08,6.08,0,0,1,192.11,123.39Z"/><path class="cls-1" d="M214.85,128.19h-3.59V108.28h3.59Z"/><path class="cls-1" d="M231.48,128.19H219.22V108.28H223v16.66h8.48Z"/><path class="cls-1" d="M15.8,82.55q0,2.72,0,4.9t.07,3.95a1.7,1.7,0,0,0,1.18,1.77l5,1.5.14,2q-5.4-.14-10.8-.14T.18,96.62l-.18-2L5.58,93a1.51,1.51,0,0,0,1.23-1.41q0-1.82.07-4.06t0-5V45.74q0-2.31,0-4.18t-.07-3.36a1.55,1.55,0,0,0-1.09-1.54L.09,34.89l-.09-2q5.86.18,11.44.18,1.1,0,2.8-.07l4.13-.16,4.13-.14q1.65,0,2.61,0,10.46,0,15.69,3.9T46,48q0,6.76-3.59,11t-11,6.47q2.9,4.36,5.34,8.42t4.53,7.44q2.09,3.38,3.84,6a27.83,27.83,0,0,0,3.24,4.09A13.42,13.42,0,0,0,50,92.7a8.18,8.18,0,0,0,1.61.93,15.18,15.18,0,0,0,1.77.64q.93.27,2.07.54l.14,2a45.58,45.58,0,0,1-5.49.41q-1.86,0-3.27-.09a14.46,14.46,0,0,1-2.52-.36,10.32,10.32,0,0,1-2-.7,9.74,9.74,0,0,1-1.77-1.11,16.93,16.93,0,0,1-3.7-4.06Q35,88.23,33,84.87T29,77.72q-2.12-3.79-4.46-7.42-.69-1.09-1.17-1.72a4.09,4.09,0,0,0-1.06-1,3.71,3.71,0,0,0-1.33-.5,14.69,14.69,0,0,0-2-.18L15.8,66.8Zm0-19.16q2.77.14,5.13.14,7.85,0,11.51-3.34t3.65-10.46q0-6.9-3.5-10.08T21.65,36.48q-1.27,0-2.72.09t-3.13.27Z"/></g></g></svg>