<svg xmlns="http://www.w3.org/2000/svg" viewBox="0 0 118 118"><defs><style>.cls-1{fill:#fff;}.cls-2{fill:#f2f2f2;}</style></defs><title>numero-3</title><g id="Camada_2" data-name="Camada 2"><g id="Camada_1-2" data-name="Camada 1"><path class="cls-1" d="M59,10A49,49,0,1,1,10,59,49.06,49.06,0,0,1,59,10M59,0a59,59,0,1,0,59,59A59,59,0,0,0,59,0Z"/><path class="cls-2" d="M59.69,88a25.48,25.48,0,0,1-11.63-2.43,24.88,24.88,0,0,1-8-6.35l7.63-7.28a20.11,20.11,0,0,0,5.44,4.5A13.86,13.86,0,0,0,59.83,78,7.78,7.78,0,0,0,65,76.34a5.49,5.49,0,0,0,2-4.44v-.14A5.28,5.28,0,0,0,64.37,67a13.52,13.52,0,0,0-7.27-1.65H52.49l-1.73-7,12-12H43V36.74H77.11v8.35L64.29,57.26a25.7,25.7,0,0,1,5,1.37,14.71,14.71,0,0,1,4.35,2.59,12.21,12.21,0,0,1,3.08,4.14,14.14,14.14,0,0,1,1.16,6v.14a16.68,16.68,0,0,1-1.27,6.59A15.4,15.4,0,0,1,73,83.32a16.22,16.22,0,0,1-5.75,3.46A22.21,22.21,0,0,1,59.69,88Z"/></g></g></svg>