<svg xmlns="http://www.w3.org/2000/svg" viewBox="0 0 118 118"><defs><style>.cls-1{fill:#fff;}.cls-2{fill:#f2f2f2;}</style></defs><title>numero-2</title><g id="Camada_2" data-name="Camada 2"><g id="Camada_1-2" data-name="Camada 1"><path class="cls-1" d="M59,10A49,49,0,1,1,10,59,49.06,49.06,0,0,1,59,10M59,0a59,59,0,1,0,59,59A59,59,0,0,0,59,0Z"/><path class="cls-2" d="M40.16,77.37,56.93,63.64q2.38-1.94,4-3.49a22.55,22.55,0,0,0,2.7-2.95,10.45,10.45,0,0,0,1.51-2.73,8.71,8.71,0,0,0,.47-2.91,6.18,6.18,0,0,0-1.87-4.89A7.12,7.12,0,0,0,58.88,45a8.62,8.62,0,0,0-5.22,1.66,29.1,29.1,0,0,0-5.08,5.11L40.8,45.53A43.12,43.12,0,0,1,44.58,41a21,21,0,0,1,4.1-3.3,17.8,17.8,0,0,1,4.86-2,24.22,24.22,0,0,1,6-.69,21.46,21.46,0,0,1,7.09,1.12,16.13,16.13,0,0,1,5.47,3.13,14,14,0,0,1,3.53,4.9,15.84,15.84,0,0,1,1.26,6.41v.14a17.86,17.86,0,0,1-.83,5.65A16.82,16.82,0,0,1,73.67,61a27.8,27.8,0,0,1-4.14,4.39Q67,67.63,63.7,70.22l-8.21,6.34h22v9.58H40.16Z"/></g></g></svg>